<svg id="Layer_1" data-name="Layer 1" xmlns="http://www.w3.org/2000/svg" viewBox="0 0 118.52 40.77"><defs><style>.cls-1{fill:#fac1c0;}.cls-2,.cls-5{fill:#576b6b;}.cls-3,.cls-8{fill:#53a0ac;}.cls-4{fill:#feecb2;}.cls-5,.cls-8{font-size:14px;font-family:ProvidenceSansPro-Bold, Providence Sans Pro;font-weight:700;}.cls-6{letter-spacing:0.02em;}.cls-7{letter-spacing:0.01em;}.cls-9{letter-spacing:0.01em;}.cls-10{letter-spacing:0em;}</style></defs><path class="cls-1" d="M48,12V39.21a.55.55,0,0,1-.55.55H45.56a.54.54,0,0,1-.55-.55v-.07a5.17,5.17,0,0,0-3.31-5A5.24,5.24,0,0,0,34.57,39a4.44,4.44,0,0,0,.06.74h-2.5a.54.54,0,0,1-.55-.55v-.07A5.23,5.23,0,1,0,21.14,39a4.44,4.44,0,0,0,.06.74H18.71a.55.55,0,0,1-.55-.55V12a.55.55,0,0,1,.55-.55H47.45A.55.55,0,0,1,48,12Z" transform="translate(-0.25 -1.98)"/><path class="cls-2" d="M16.67,19.43V39.21a.55.55,0,0,1-.55.55H14.23a.54.54,0,0,1-.55-.55v-.07a5.18,5.18,0,0,0-3.31-5A5.24,5.24,0,0,0,3.24,39a3.58,3.58,0,0,0,.06.74H.81a.55.55,0,0,1-.56-.55V19.43a.55.55,0,0,1,.56-.55H16.12A.55.55,0,0,1,16.67,19.43Z" transform="translate(-0.25 -1.98)"/><path class="cls-1" d="M9,2.38l6,13.93a.66.66,0,0,1-.61.93h-12a.66.66,0,0,1-.61-.93l6-13.93A.67.67,0,0,1,9,2.38Z" transform="translate(-0.25 -1.98)"/><circle class="cls-3" cx="26.11" cy="37.04" r="3.73"/><circle class="cls-3" cx="8.21" cy="37.04" r="3.73"/><circle class="cls-3" cx="39.54" cy="37.04" r="3.73"/><path class="cls-4" d="M26.61,15.4H41a.76.76,0,0,1,.76.76v5.51a.76.76,0,0,1-.76.76H26.13a.76.76,0,0,1-.76-.76v-5A1.24,1.24,0,0,1,26.61,15.4Z"/><text class="cls-5" transform="translate(52.08 19.11)">Disc<tspan class="cls-6" x="28.73" y="0">o</tspan><tspan x="36.71" y="0">ve</tspan><tspan class="cls-7" x="52.46" y="0">r</tspan><tspan x="59.23" y="0">y</tspan></text><text class="cls-8" transform="translate(60.98 32.82)">S<tspan class="cls-9" x="8.09" y="0">t</tspan><tspan x="14.11" y="0">a</tspan><tspan class="cls-7" x="21.53" y="0">ti</tspan><tspan class="cls-10" x="32.73" y="0">on</tspan></text></svg>